<svg xmlns="http://www.w3.org/2000/svg" enable-background="new 0 0 32 32" viewBox="0 0 32 32"><path fill="#FFF9DD" d="M26,32H6c-3.314,0-6-2.686-6-6V6c0-3.314,2.686-6,6-6h20c3.314,0,6,2.686,6,6v20C32,29.314,29.314,32,26,32z"/><path fill="#FFD200" d="M22.834,8H9.166l1.242,14.136L16,24l5.591-1.864L22.834,8z M20.14,12.546l-4.115,1.765h3.969l-0.456,5.236l-3.495,1.025l-3.516-1.043l-0.228-2.639h1.74l0.114,1.368l1.872,0.475l1.947-0.55l0.131-2.2l-5.926-0.018l-0.128-1.653l4.221-1.765h-4.374l-0.207-1.689h8.62h0.001L20.14,12.546z"/></svg>