<svg xmlns="http://www.w3.org/2000/svg" width="512" height="512" viewBox="0 0 512 512"><path fill="#FF651E" d="M492.871 374.968c0 65.432-53.089 118.482-118.565 118.482H137.168c-65.497 0-118.566-53.051-118.566-118.482V138.009c0-65.451 53.069-118.483 118.566-118.483h237.137c65.477 0 118.565 53.032 118.565 118.483v236.959z"/><path fill="#80330F" d="M207.34 108.389v40.053h-13.836V135.04h-12.665v13.402h-13.836v-40.053h13.836v13.229h12.665v-13.229h13.836m0-9.877h-13.836c-2.41 0-4.618.863-6.333 2.297a9.836 9.836 0 0 0-6.333-2.297h-13.836c-5.455 0-9.877 4.422-9.877 9.877v40.053c0 5.455 4.422 9.877 9.877 9.877h13.836c2.41 0 4.618-.863 6.333-2.297a9.836 9.836 0 0 0 6.333 2.297h13.836c5.455 0 9.877-4.422 9.877-9.877v-40.053c0-5.455-4.422-9.877-9.877-9.877zm44.211 9.877v13.306h-12.177v26.747h-13.837v-26.747h-12.176v-13.306h38.19m0-9.877h-38.19c-5.455 0-9.877 4.422-9.877 9.877v13.306c0 5.455 4.422 9.877 9.877 9.877h2.299v16.87c0 5.455 4.422 9.877 9.877 9.877h13.837c5.455 0 9.877-4.422 9.877-9.877v-16.87h2.3c5.455 0 9.877-4.422 9.877-9.877v-13.306c.001-5.455-4.422-9.877-9.877-9.877zm52.665 9.877v40.053h-13.797v-19.843l-9.516 14.25h-.23l-9.533-14.25v19.843h-13.528v-40.053h14.435l8.857 14.097 8.878-14.097h14.434m0-9.877h-14.435a9.875 9.875 0 0 0-8.357 4.613l-.511.811-.504-.802a9.879 9.879 0 0 0-8.363-4.622h-14.435c-5.455 0-9.877 4.422-9.877 9.877v40.053c0 5.455 4.422 9.877 9.877 9.877h13.528a9.877 9.877 0 0 0 8.911-5.612c.207.013.414.02.622.02h.23c.202 0 .404-.006.604-.019a9.879 9.879 0 0 0 8.911 5.611h13.797c5.455 0 9.877-4.422 9.877-9.877v-40.053c.002-5.455-4.42-9.877-9.875-9.877zm20.707 9.877v26.824h19.472v13.229h-33.31v-40.053h13.838m0-9.877h-13.838c-5.455 0-9.877 4.422-9.877 9.877v40.053c0 5.455 4.422 9.877 9.877 9.877h33.31c5.455 0 9.877-4.422 9.877-9.877v-13.229c0-5.455-4.422-9.877-9.877-9.877H334.8v-16.947c0-5.455-4.422-9.877-9.877-9.877zm39.503 67.517h.005m-.005 0l-19.819 214.724-88.907 23.835-88.852-23.854-19.8-214.705h217.378m-169.533 123.53h94.366l-3.164 34.151-30.355 7.927-.039.019-30.336-7.945-2.007-21.926h-27.326l3.879 42.29 55.79 14.965h.039l55.81-14.965 7.467-80.873H219.789l-2.49-26.958h104.19l2.451-26.323H187.56l7.333 79.638m169.538-133.407H147.048a9.879 9.879 0 0 0-9.836 10.784l19.8 214.705a9.876 9.876 0 0 0 7.274 8.632l88.852 23.854a9.844 9.844 0 0 0 5.119.001l88.906-23.835a9.877 9.877 0 0 0 7.277-8.632l19.796-214.466c.045-.382.068-.771.068-1.166.002-5.455-4.418-9.877-9.873-9.877zm-166.043 63.645H313.098l-.611 6.569h-95.19a9.874 9.874 0 0 0-9.835 10.785l2.49 26.958a9.877 9.877 0 0 0 9.835 8.969H308.184l-5.839 63.238-46.625 12.502-46.603-12.501-2.262-24.656h7.487l1.186 12.949a9.876 9.876 0 0 0 7.333 8.654l30.336 7.945a9.854 9.854 0 0 0 5.383-.108l30.009-7.836a9.88 9.88 0 0 0 7.34-8.646l3.164-34.151a9.876 9.876 0 0 0-9.835-10.788h-85.357l-5.513-59.883zm165.651 258.264H147.415c-62.448 0-113.253-50.818-113.253-113.283V148.179c0-62.454 50.805-113.263 113.253-113.263h216.624c62.459 0 113.272 50.81 113.272 113.263v216.599c.001 62.464-50.813 113.283-113.272 113.283zM147.415 44.818c-56.988 0-103.351 46.367-103.351 103.36v216.599c0 57.004 46.363 103.381 103.351 103.381h216.624c56.998 0 103.37-46.377 103.37-103.381V148.179c0-56.993-46.372-103.36-103.37-103.36H147.415z"/><path fill="#FFF" d="M180.839 135.04h12.665v13.402h13.836v-40.053h-13.836v13.228h-12.665v-13.228h-13.836v40.053h13.836zM225.538 148.442h13.837v-26.747h12.176v-13.306h-38.19v13.306h12.177zM271.14 128.599l9.533 14.25h.23l9.516-14.25v19.843h13.797v-40.053h-14.435l-8.878 14.096-8.857-14.096h-14.435v40.053h13.529zM344.395 135.213h-19.472v-26.824h-13.838v40.053h33.31zM147.048 166.029l19.8 214.705 88.852 23.854 88.906-23.835 19.819-214.724H147.048zm174.439 70.214h-104.19l2.49 26.958H319.015l-7.467 80.873-55.81 14.965h-.038l-55.79-14.965-3.879-42.29h27.326l2.007 21.926 30.336 7.945.039-.019 30.355-7.927 3.164-34.151h-94.366l-7.333-79.639h136.378l-2.45 26.324z"/><path fill="#FFF" d="M180.839 135.04h12.665v13.402h13.836v-40.053h-13.836v13.228h-12.665v-13.228h-13.836v40.053h13.836zM225.538 148.442h13.837v-26.747h12.176v-13.306h-38.19v13.306h12.177zM271.14 128.599l9.533 14.25h.23l9.516-14.25v19.843h13.797v-40.053h-14.435l-8.878 14.096-8.857-14.096h-14.435v40.053h13.529zM344.395 135.213h-19.472v-26.824h-13.838v40.053h33.31zM147.048 166.029l19.8 214.705 88.852 23.854 88.906-23.835 19.819-214.724H147.048zm174.439 70.214h-104.19l2.49 26.958H319.015l-7.467 80.873-55.81 14.965h-.038l-55.79-14.965-3.879-42.29h27.326l2.007 21.926 30.336 7.945.039-.019 30.355-7.927 3.164-34.151h-94.366l-7.333-79.639h136.378l-2.45 26.324z"/></svg>