<svg width="650" height="812" viewBox="0 0 650 812" fill="none" xmlns="http://www.w3.org/2000/svg">
<path d="M247.208 86.966C254.245 95.702 261.768 100.07 269.776 100.07C275.964 100.07 280.575 98.5533 283.608 95.52C286.641 92.3653 288.158 86.6627 288.158 78.412V24.722H241.748V2.336H314.912V80.596C314.912 86.42 314.123 91.9407 312.546 97.158C311.09 102.254 308.603 106.743 305.084 110.626C301.565 114.509 296.955 117.603 291.252 119.908C285.671 122.092 278.815 123.184 270.686 123.184C267.41 123.184 264.013 122.82 260.494 122.092C256.975 121.485 253.517 120.393 250.12 118.816C246.723 117.239 243.447 115.237 240.292 112.81C237.137 110.262 234.286 107.168 231.738 103.528L247.208 86.966ZM354.699 87.694C359.188 91.334 364.042 94.3067 369.259 96.612C374.598 98.9173 379.876 100.07 385.093 100.07C391.281 100.07 395.77 99.0387 398.561 96.976C401.473 94.9133 402.929 92.1227 402.929 88.604C402.929 86.784 402.504 85.2067 401.655 83.872C400.806 82.5373 399.592 81.3847 398.015 80.414C396.438 79.322 394.496 78.3513 392.191 77.502C390.007 76.5313 387.459 75.5 384.547 74.408L369.259 67.856C365.983 66.6427 362.768 65.0653 359.613 63.124C356.58 61.1827 353.91 58.938 351.605 56.39C349.3 53.7207 347.419 50.6873 345.963 47.29C344.628 43.7713 343.961 39.828 343.961 35.46C343.961 30.6067 344.992 26.0567 347.055 21.81C349.239 17.442 352.212 13.6807 355.973 10.526C359.856 7.25 364.466 4.702 369.805 2.88199C375.144 1.06199 381.028 0.151994 387.459 0.151994C394.739 0.151994 401.776 1.48666 408.571 4.156C415.366 6.82533 421.493 10.708 426.953 15.804L413.303 32.73C409.178 29.6967 405.113 27.3913 401.109 25.814C397.105 24.1153 392.555 23.266 387.459 23.266C382.242 23.266 378.177 24.2367 375.265 26.178C372.474 27.998 371.079 30.6067 371.079 34.004C371.079 37.644 372.899 40.374 376.539 42.194C380.179 44.014 384.85 45.9553 390.553 48.018L404.931 54.206C412.818 57.118 419.006 61.122 423.495 66.218C428.106 71.314 430.411 78.048 430.411 86.42C430.411 91.3947 429.38 96.1267 427.317 100.616C425.254 104.984 422.282 108.867 418.399 112.264C414.516 115.54 409.724 118.209 404.021 120.272C398.318 122.213 391.766 123.184 384.365 123.184C376.357 123.184 368.41 121.789 360.523 118.998C352.758 116.086 345.66 111.779 339.229 106.076L354.699 87.694Z" fill="#F7DF1E"/>
<path d="M650 162H0V812H650V162Z" fill="#F7DF1E"/>
<path d="M436.635 669.815C449.728 691.193 466.762 706.906 496.889 706.906C522.198 706.906 538.365 694.257 538.365 676.779C538.365 655.835 521.754 648.417 493.897 636.232L478.627 629.68C434.551 610.902 405.27 587.379 405.27 537.648C405.27 491.839 440.174 456.966 494.722 456.966C533.557 456.966 561.476 470.482 581.595 505.871L534.032 536.41C523.559 517.633 512.262 510.235 494.722 510.235C476.832 510.235 465.493 521.584 465.493 536.41C465.493 554.734 476.842 562.152 503.048 573.502L518.318 580.043C570.215 602.298 599.517 624.986 599.517 675.995C599.517 730.987 556.317 761.114 498.302 761.114C441.577 761.114 404.929 734.083 386.998 698.652L436.635 669.815ZM220.866 675.108C230.461 692.132 239.19 706.525 260.175 706.525C280.243 706.525 292.902 698.673 292.902 668.144V460.453H353.982V668.969C353.982 732.215 316.901 761.001 262.775 761.001C213.871 761.001 185.549 735.692 171.146 705.209L220.866 675.108Z" fill="black"/>
</svg>
