<svg width="500" height="500" viewBox="0 0 500 500" fill="none" xmlns="http://www.w3.org/2000/svg">
<rect x="7.5" y="7.5" width="485" height="485" rx="92.5" stroke="url(#paint0_linear)" stroke-width="15"/>
<path d="M376.562 189.062C371.875 187.5 367.969 185.938 364.062 185.156C364.062 182.031 364.844 178.906 365.625 175.781C375 129.688 368.75 92.1875 347.656 79.6875C327.344 67.9688 293.75 80.4688 259.375 110.156C256.25 112.5 253.125 115.625 250 118.75C247.656 116.406 245.312 114.844 243.75 112.5C207.812 81.25 171.875 67.9688 150.781 80.4688C130.469 92.1875 124.219 127.344 132.812 171.875C133.594 175.781 134.375 180.469 135.938 184.375C130.469 185.938 125.781 187.5 121.094 189.062C79.6875 203.906 50 226.562 50 250C50 274.219 81.25 299.219 125 314.062C128.125 314.844 132.031 316.406 135.156 317.188C134.375 321.875 133.594 326.562 132.031 331.25C124.219 374.219 130.469 408.594 150.781 420.312C171.875 432.812 207.812 420.312 242.188 389.844C244.531 387.5 247.656 385.156 250 382.812C253.906 385.938 257.031 389.062 260.938 392.188C294.531 421.094 327.344 432.812 347.656 421.094C368.75 408.594 375.781 371.875 367.188 326.562C366.406 323.438 365.625 319.531 364.844 316.406C367.188 315.625 369.531 314.844 371.875 314.062C417.188 299.219 450 275 450 250C450 226.562 418.75 203.125 376.562 189.062ZM270.312 122.656C300 96.875 326.562 87.5 339.062 94.5312C352.344 101.562 357.812 132.812 349.219 172.656C348.438 175.781 348.438 178.125 347.656 180.469C329.688 176.562 312.5 174.219 294.531 172.656C284.375 157.812 273.438 143.75 261.719 130.469C264.844 128.125 267.188 125 270.312 122.656ZM180.469 290.625C184.375 297.656 188.281 303.906 192.969 310.938C180.469 309.375 167.969 307.812 156.25 304.688C160.156 293.75 164.062 282.031 168.75 270.312C172.656 277.344 176.562 283.594 180.469 290.625ZM156.25 196.875C167.969 193.75 179.688 192.188 192.188 190.625C188.281 196.875 184.375 203.906 180.469 210.156C176.562 217.188 172.656 223.438 168.75 230.469C164.062 218.75 160.156 207.812 156.25 196.875ZM178.125 250.781C182.812 239.844 189.062 228.906 194.531 218.75C200.781 208.594 207.031 198.438 214.062 188.281C225.781 187.5 237.5 186.719 250 186.719C261.719 186.719 274.219 187.5 285.156 188.281C292.188 198.438 298.438 208.594 304.688 218.75C310.156 228.906 316.406 239.062 321.094 250C316.406 260.938 310.938 271.875 304.688 282.031C298.438 292.188 292.188 302.344 285.938 312.5C274.219 313.281 261.719 314.062 250 314.062C237.5 314.062 225.781 313.281 214.062 312.5C207.031 302.344 200.781 292.188 194.531 282.031C189.062 271.875 183.594 260.938 178.125 250.781ZM318.75 290.625C323.438 283.594 326.562 276.562 330.469 269.531C335.156 281.25 339.844 292.188 343.75 303.906C331.25 307.031 319.531 309.375 307.031 310.156C310.938 303.906 314.844 296.875 318.75 290.625ZM330.469 230.469C326.562 223.438 322.656 217.188 318.75 210.156C314.844 203.906 310.938 196.875 307.031 190.625C319.531 192.188 332.031 194.531 342.969 196.875C339.062 208.594 335.156 219.531 330.469 230.469ZM250 142.969C257.812 151.562 265.625 160.938 272.656 171.094C257.812 170.312 242.188 170.312 226.562 171.094C234.375 160.938 242.188 151.562 250 142.969ZM159.375 94.5312C172.656 87.5 201.562 98.4375 232.031 125C234.375 127.344 235.938 128.906 238.281 130.469C225.781 143.75 214.844 157.812 204.688 172.656C186.719 174.219 169.531 176.562 152.344 180.469C150.781 176.562 150 172.656 149.219 167.969C142.188 130.469 146.875 102.344 159.375 94.5312ZM139.844 300.781C136.719 300 133.594 299.219 130.469 297.656C114.062 292.188 94.5312 284.375 81.25 273.438C73.4375 267.969 67.9688 259.375 66.4062 250C66.4062 235.938 91.4062 217.188 126.562 204.688C131.25 203.125 135.938 202.344 140.625 200.781C145.312 217.969 152.344 234.375 159.375 250.781C151.562 266.406 145.312 283.594 139.844 300.781ZM231.25 377.344C217.969 389.062 203.125 398.438 186.719 404.688C178.125 409.375 168.75 409.375 159.375 406.25C146.875 398.438 142.188 371.094 149.219 334.375C150 329.688 150.781 325 151.562 321.094C169.531 325 186.719 327.344 204.688 328.906C214.844 342.969 226.562 357.031 238.281 370.312C235.938 372.656 233.594 375 231.25 377.344ZM250 358.594C242.188 350 234.375 340.625 226.562 329.688C234.375 330.469 242.188 330.469 250 330.469C257.812 330.469 265.625 330.469 273.438 329.688C266.406 339.844 258.594 349.219 250 358.594ZM352.344 382.031C351.562 391.406 346.875 400 339.844 406.25C327.344 413.281 300.781 403.906 271.875 379.688C268.75 376.562 265.625 373.438 261.719 370.312C274.219 357.031 285.156 343.75 295.312 328.906C313.281 327.344 330.469 324.219 348.438 320.312C349.219 323.438 350 326.562 350.781 329.688C353.906 346.875 354.688 364.844 352.344 382.031ZM366.406 297.656C364.062 298.438 362.5 299.219 360.156 300C354.688 282.812 347.656 266.406 339.844 250C347.656 234.375 353.906 217.969 359.375 200.781C363.281 202.344 367.188 203.125 371.094 204.688C407.031 217.188 432.812 235.938 432.812 250C432.812 264.844 405.469 285.156 366.406 297.656ZM250 285.938C269.531 285.938 285.156 270.312 285.156 250C285.156 230.469 269.531 214.844 250 214.844C229.688 214.844 214.062 230.469 214.062 250C214.062 270.312 229.688 285.938 250 285.938Z" fill="url(#paint1_linear)"/>
<defs>
<linearGradient id="paint0_linear" x1="500" y1="0" x2="0" y2="500" gradientUnits="userSpaceOnUse">
<stop stop-color="#A1F9FF"/>
<stop offset="1" stop-color="#5AA6FF"/>
</linearGradient>
<linearGradient id="paint1_linear" x1="40" y1="428" x2="441.475" y2="51.2588" gradientUnits="userSpaceOnUse">
<stop stop-color="#03A4FF"/>
<stop offset="1" stop-color="#B3FAFF"/>
</linearGradient>
</defs>
</svg>
