<svg width="820" height="810" viewBox="0 0 820 810" fill="none" xmlns="http://www.w3.org/2000/svg">
<path d="M264.73 0.335998H293.122L307.318 55.664C309.138 62.216 310.715 68.586 312.05 74.774C313.506 80.8407 315.083 87.15 316.782 93.702H317.51C319.33 87.15 320.968 80.8407 322.424 74.774C323.88 68.586 325.457 62.216 327.156 55.664L341.17 0.335998H368.47L332.798 119H300.584L264.73 0.335998ZM382.777 0.335998H409.531V76.048C409.531 83.2067 410.866 88.6667 413.535 92.428C416.204 96.1893 420.39 98.07 426.093 98.07C431.796 98.07 435.982 96.1893 438.651 92.428C441.442 88.6667 442.837 83.2067 442.837 76.048V0.335998H468.681V73.318C468.681 88.8487 465.162 100.739 458.125 108.99C451.209 117.119 440.532 121.184 426.093 121.184C411.533 121.184 400.674 117.119 393.515 108.99C386.356 100.739 382.777 88.8487 382.777 73.318V0.335998ZM497.366 0.335998H575.626V22.904H524.12V46.746H567.8V69.132H524.12V96.432H577.446V119H497.366V0.335998Z" fill="#4DBA87"/>
<line y1="-15" x2="743.147" y2="-15" transform="matrix(0.534273 0.845312 -0.888139 0.459576 0.857422 171.176)" stroke="#4DBA87" stroke-width="30"/>
<line y1="-15" x2="738.685" y2="-15" transform="matrix(-0.532506 0.846426 -0.892933 -0.450188 790.992 163.364)" stroke="#4DBA87" stroke-width="30"/>
<line y1="-15" x2="397.695" y2="-15" transform="matrix(-0.525049 0.851072 -0.896428 -0.443189 613.598 158.761)" stroke="#435466" stroke-width="30"/>
<line y1="-15" x2="181.085" y2="-15" transform="matrix(-0.517795 0.855505 -0.896025 -0.444003 509.4 158.934)" stroke="#435466" stroke-width="30"/>
<line y1="-15" x2="119.12" y2="-15" transform="matrix(-1 -6.96841e-05 8.38128e-05 -1 628.167 158.769)" stroke="#435466" stroke-width="30"/>
<line y1="-15" x2="180.863" y2="-15" transform="matrix(0.530688 0.847567 -0.88989 0.456175 316.225 171.176)" stroke="#435466" stroke-width="30"/>
<line x1="187.457" y1="171.817" x2="342.836" y2="171.817" stroke="#435466" stroke-width="30"/>
<line y1="-15" x2="403.831" y2="-15" transform="matrix(0.548707 0.836015 -0.88088 0.47334 180.822 171.176)" stroke="#435466" stroke-width="30"/>
<path d="M426.039 797.079C426.039 804.215 419.756 810 412.005 810C404.254 810 397.971 804.215 397.971 797.079C397.971 789.943 404.254 784.158 412.005 784.158C419.756 784.158 426.039 789.943 426.039 797.079Z" fill="#4DBA87"/>
<ellipse cx="10.0245" cy="167.933" rx="10.0245" ry="9.93912" fill="#4DBA87"/>
<ellipse rx="14.5355" ry="12.4239" transform="matrix(1 0 0 -1 805.465 170.418)" fill="#4DBA87"/>
<ellipse cx="416.516" cy="503.378" rx="16.5403" ry="16.3995" fill="#435466"/>
<ellipse cx="428.044" cy="321.492" rx="16.0391" ry="15.4056" fill="#435466"/>
<line y1="-15" x2="178.254" y2="-15" transform="matrix(-0.99999 0.00444444 -0.005363 -0.999986 191.283 157)" stroke="#4DBA87" stroke-width="30"/>
<line y1="-15" x2="173.969" y2="-15" transform="matrix(-0.999992 0.00411289 -0.00502314 -0.999987 802.133 157.994)" stroke="#4DBA87" stroke-width="30"/>
</svg>
